{
  "source": "C:\\Users\\Peter\\Desktop\\stuff\\MIUN\\quantitative_research\\video_compression\\videos\\HEVC_CLASS_B\\BQTerrace_1920x1080_60.y4m",
  "output": "C:\\Users\\Peter\\Desktop\\stuff\\MIUN\\quantitative_research\\video_compression\\compressed_videos\\HEVC_CLASS_B\\h264\\1\\BQTerrace_1920x1080_60_h264.mp4",
  "codec": "h264",
  "ok": "Input #0, yuv4mpegpipe, from 'C:\\Users\\Peter\\Desktop\\stuff\\MIUN\\quantitative_research\\video_compression\\videos\\HEVC_CLASS_B\\BQTerrace_1920x1080_60.y4m':\n  Duration: 00:00:10.00, start: 0.000000, bitrate: 1492994 kb/s\n  Stream #0:0: Video: rawvideo (I420 / 0x30323449), yuv420p(progressive), 1920x1080, 60 fps, 60 tbr, 60 tbn\n[out#0/mp4 @ 0000019b686f9880] Codec AVOption b:a (set bitrate (in bits/s)) has not been used for any stream. The most likely reason is either wrong type (e.g. a video option with no video streams) or that it is a private option of some decoder which was not actually used for any stream.\nStream mapping:\n  Stream #0:0 -> #0:0 (rawvideo (native) -> h264 (libx264))\nPress [q] to stop, [?] for help\n[libx264 @ 0000019b686fc8c0] using cpu capabilities: MMX2 SSE2Fast SSSE3 SSE4.2 AVX FMA3 BMI2 AVX2\n[libx264 @ 0000019b686fc8c0] profile High, level 5.0, 4:2:0, 8-bit\n[libx264 @ 0000019b686fc8c0] 264 - core 165 r3222 b35605a - H.264/MPEG-4 AVC codec - Copyleft 2003-2025 - http://www.videolan.org/x264.html - options: cabac=1 ref=5 deblock=1:0:0 analyse=0x3:0x113 me=hex subme=8 psy=1 psy_rd=1.00:0.00 mixed_ref=1 me_range=16 chroma_me=1 trellis=2 8x8dct=1 cqm=0 deadzone=21,11 fast_pskip=1 chroma_qp_offset=-2 threads=18 lookahead_threads=3 sliced_threads=0 nr=0 decimate=1 interlaced=0 bluray_compat=0 constrained_intra=0 bframes=3 b_pyramid=2 b_adapt=1 b_bias=0 direct=3 weightb=1 open_gop=0 weightp=2 keyint=250 keyint_min=25 scenecut=40 intra_refresh=0 rc_lookahead=50 rc=cbr mbtree=1 bitrate=1000 ratetol=1.0 qcomp=0.60 qpmin=0 qpmax=69 qpstep=4 vbv_maxrate=1000 vbv_bufsize=1000 nal_hrd=none filler=0 ip_ratio=1.40 aq=1:1.00\nOutput #0, mp4, to 'C:\\Users\\Peter\\Desktop\\stuff\\MIUN\\quantitative_research\\video_compression\\compressed_videos\\HEVC_CLASS_B\\h264\\1\\BQTerrace_1920x1080_60_h264.mp4':\n  Metadata:\n    encoder         : Lavf62.3.100\n  Stream #0:0: Video: h264 (avc1 / 0x31637661), yuv420p(tv, progressive), 1920x1080, q=2-31, 1000 kb/s, 60 fps, 15360 tbn\n    Metadata:\n      encoder         : Lavc62.11.100 libx264\n    Side data:\n      cpb: bitrate max/min/avg: 1000000/0/1000000 buffer size: 1000000 vbv_delay: N/A\nframe=    0 fps=0.0 q=0.0 size=       0KiB time=N/A bitrate=N/A speed=N/A elapsed=0:00:01.16    \nframe=    0 fps=0.0 q=0.0 size=       0KiB time=N/A bitrate=N/A speed=N/A elapsed=0:00:01.67    \nframe=    0 fps=0.0 q=0.0 size=       0KiB time=N/A bitrate=N/A speed=N/A elapsed=0:00:02.19    \nframe=    0 fps=0.0 q=0.0 size=       0KiB time=N/A bitrate=N/A speed=N/A elapsed=0:00:02.70    \nframe=   20 fps=6.1 q=49.0 size=       0KiB time=00:00:00.30 bitrate=   1.3kbits/s speed=0.0917x elapsed=0:00:03.27    \nframe=   34 fps=8.8 q=48.0 size=       0KiB time=00:00:00.53 bitrate=   0.7kbits/s speed=0.138x elapsed=0:00:03.85    \nframe=   56 fps= 13 q=48.0 size=       0KiB time=00:00:00.80 bitrate=   0.5kbits/s speed=0.181x elapsed=0:00:04.41    \nframe=   80 fps= 16 q=48.0 size=       0KiB time=00:00:01.23 bitrate=   0.3kbits/s speed=0.243x elapsed=0:00:05.08    \nframe=  102 fps= 18 q=47.0 size=       0KiB time=00:00:01.63 bitrate=   0.2kbits/s speed=0.281x elapsed=0:00:05.80    \nframe=  124 fps= 19 q=47.0 size=       0KiB time=00:00:01.96 bitrate=   0.2kbits/s speed=0.308x elapsed=0:00:06.39    \nframe=  150 fps= 21 q=47.0 size=       0KiB time=00:00:02.43 bitrate=   0.2kbits/s speed=0.345x elapsed=0:00:07.04    \nframe=  168 fps= 22 q=47.0 size=     256KiB time=00:00:02.76 bitrate= 758.1kbits/s speed=0.362x elapsed=0:00:07.64    \nframe=  184 fps= 22 q=47.0 size=     256KiB time=00:00:03.03 bitrate= 691.5kbits/s speed=0.37x elapsed=0:00:08.18    \nframe=  200 fps= 23 q=47.0 size=     256KiB time=00:00:03.30 bitrate= 635.6kbits/s speed=0.378x elapsed=0:00:08.71    \nframe=  218 fps= 24 q=48.0 size=     256KiB time=00:00:03.60 bitrate= 582.6kbits/s speed=0.388x elapsed=0:00:09.26    \nframe=  233 fps= 24 q=48.0 size=     256KiB time=00:00:03.85 bitrate= 544.8kbits/s speed=0.393x elapsed=0:00:09.78    \nframe=  242 fps= 23 q=48.0 size=     256KiB time=00:00:03.93 bitrate= 533.3kbits/s speed=0.38x elapsed=0:00:10.34    \nframe=  262 fps= 24 q=48.0 size=     256KiB time=00:00:04.33 bitrate= 484.0kbits/s speed=0.398x elapsed=0:00:10.89    \nframe=  282 fps= 25 q=48.0 size=     256KiB time=00:00:04.60 bitrate= 456.0kbits/s speed= 0.4x elapsed=0:00:11.49    \nframe=  302 fps= 25 q=48.0 size=     256KiB time=00:00:04.93 bitrate= 425.2kbits/s speed=0.408x elapsed=0:00:12.10    \nframe=  322 fps= 25 q=48.0 size=     512KiB time=00:00:05.33 bitrate= 786.5kbits/s speed=0.421x elapsed=0:00:12.67    \nframe=  342 fps= 26 q=48.0 size=     512KiB time=00:00:05.66 bitrate= 740.2kbits/s speed=0.428x elapsed=0:00:13.24    \nframe=  366 fps= 26 q=48.0 size=     512KiB time=00:00:06.06 bitrate= 691.4kbits/s speed=0.437x elapsed=0:00:13.87    \nframe=  380 fps= 26 q=48.0 size=     512KiB time=00:00:06.30 bitrate= 665.8kbits/s speed=0.437x elapsed=0:00:14.42    \nframe=  402 fps= 27 q=48.0 size=     512KiB time=00:00:06.60 bitrate= 635.6kbits/s speed=0.441x elapsed=0:00:14.95    \nframe=  426 fps= 27 q=47.0 size=     512KiB time=00:00:07.06 bitrate= 593.6kbits/s speed=0.453x elapsed=0:00:15.59    \nframe=  444 fps= 27 q=49.0 size=     512KiB time=00:00:07.36 bitrate= 569.4kbits/s speed=0.456x elapsed=0:00:16.15    \nframe=  466 fps= 28 q=48.0 size=     512KiB time=00:00:07.73 bitrate= 542.4kbits/s speed=0.464x elapsed=0:00:16.68    \nframe=  483 fps= 28 q=48.0 size=     768KiB time=00:00:08.01 bitrate= 784.8kbits/s speed=0.465x elapsed=0:00:17.23    \nframe=  484 fps= 27 q=46.0 size=     768KiB time=00:00:08.03 bitrate= 783.2kbits/s speed=0.452x elapsed=0:00:17.75    \nframe=  504 fps= 28 q=49.0 size=     768KiB time=00:00:08.36 bitrate= 752.0kbits/s speed=0.458x elapsed=0:00:18.27    \nframe=  528 fps= 28 q=48.0 size=     768KiB time=00:00:08.71 bitrate= 721.8kbits/s speed=0.463x elapsed=0:00:18.84    \nframe=  542 fps= 28 q=47.0 size=     768KiB time=00:00:09.00 bitrate= 699.1kbits/s speed=0.463x elapsed=0:00:19.43    \nframe=  580 fps= 29 q=46.0 size=     768KiB time=00:00:09.40 bitrate= 669.3kbits/s speed=0.471x elapsed=0:00:19.97    \n[mp4 @ 0000019b686f9980] Starting second pass: moving the moov atom to the beginning of the file\n[out#0/mp4 @ 0000019b686f9880] video:967KiB audio:0KiB subtitle:0KiB other streams:0KiB global headers:0KiB muxing overhead: 0.812411%\nframe=  600 fps= 29 q=-1.0 Lsize=     975KiB time=00:00:09.96 bitrate= 801.1kbits/s speed=0.48x elapsed=0:00:20.78    \n[libx264 @ 0000019b686fc8c0] frame I:3     Avg QP:44.67  size: 26343\n[libx264 @ 0000019b686fc8c0] frame P:151   Avg QP:45.67  size:  2675\n[libx264 @ 0000019b686fc8c0] frame B:446   Avg QP:49.50  size:  1135\n[libx264 @ 0000019b686fc8c0] consecutive B-frames:  0.8%  0.0%  0.5% 98.7%\n[libx264 @ 0000019b686fc8c0] mb I  I16..4: 36.4% 58.7%  4.9%\n[libx264 @ 0000019b686fc8c0] mb P  I16..4:  0.3%  0.3%  0.0%  P16..4: 12.2%  0.7%  2.2%  0.0%  0.0%    skip:84.3%\n[libx264 @ 0000019b686fc8c0] mb B  I16..4:  0.0%  0.0%  0.0%  B16..8: 18.0%  0.1%  0.0%  direct: 0.0%  skip:81.9%  L0:31.7% L1:68.3% BI: 0.0%\n[libx264 @ 0000019b686fc8c0] 8x8 transform intra:55.4% inter:81.9%\n[libx264 @ 0000019b686fc8c0] direct mvs  spatial:97.8% temporal:2.2%\n[libx264 @ 0000019b686fc8c0] coded y,uvDC,uvAC intra: 23.5% 19.3% 2.4% inter: 0.2% 0.2% 0.0%\n[libx264 @ 0000019b686fc8c0] i16 v,h,dc,p: 36% 43%  4% 17%\n[libx264 @ 0000019b686fc8c0] i8 v,h,dc,ddl,ddr,vr,hd,vl,hu: 11%  5% 35%  5%  7%  5%  7%  5% 21%\n[libx264 @ 0000019b686fc8c0] i4 v,h,dc,ddl,ddr,vr,hd,vl,hu: 10%  7% 18%  7%  8%  7%  8%  8% 25%\n[libx264 @ 0000019b686fc8c0] i8c dc,h,v,p: 80% 16%  3%  1%\n[libx264 @ 0000019b686fc8c0] Weighted P-Frames: Y:9.9% UV:4.6%\n[libx264 @ 0000019b686fc8c0] ref P L0: 70.6%  5.9% 15.3%  4.0%  3.8%  0.5%\n[libx264 @ 0000019b686fc8c0] ref B L0: 94.2%  4.5%  1.0%  0.3%\n[libx264 @ 0000019b686fc8c0] ref B L1: 98.6%  1.4%\n[libx264 @ 0000019b686fc8c0] kb/s:791.40\n",
  "seconds": 21.34822678565979,
  "probe_out": {}
}